HIERARCHY
ROOT Hips
{
	OFFSET 0.000000 0.000000 0.000000
	CHANNELS 6 Xposition Yposition Zposition Xrotation Yrotation Zrotation
	JOINT LeftUpLeg_virtual
	{
		OFFSET 0.000000 0.000000 0.000000
		CHANNELS 3 Xrotation Yrotation Zrotation
		JOINT LeftUpLeg
		{
			OFFSET 13.026900 -6.336304 -1.092800
			CHANNELS 3 Xrotation Yrotation Zrotation
			JOINT LeftLeg
			{
				OFFSET 0.524474 -46.096886 9.782700
				CHANNELS 3 Xrotation Yrotation Zrotation
				JOINT LeftFoot
				{
					OFFSET -0.524474 -53.427422 -12.948200
					CHANNELS 3 Xrotation Yrotation Zrotation
					JOINT LeftToeBase
					{
						OFFSET 0.192200 -14.009700 16.364100
						CHANNELS 3 Xrotation Yrotation Zrotation
						JOINT LeftToe_End
						{
							OFFSET -1.784700 -0.561700 9.474800
							CHANNELS 3 Xrotation Yrotation Zrotation
							End Site
							{
								OFFSET 0 0 0
							}
						}
					}
				}
			}
		}
	}
	JOINT RightUpLeg_virtual
	{
		OFFSET 0.000000 0.000000 0.000000
		CHANNELS 3 Xrotation Yrotation Zrotation
		JOINT RightUpLeg
		{
			OFFSET -12.883000 -6.336304 -1.092800
			CHANNELS 3 Xrotation Yrotation Zrotation
			JOINT RightLeg
			{
				OFFSET -0.524587 -46.096825 9.782800
				CHANNELS 3 Xrotation Yrotation Zrotation
				JOINT RightFoot
				{
					OFFSET 0.524587 -53.427383 -12.948300
					CHANNELS 3 Xrotation Yrotation Zrotation
					JOINT RightToeBase
					{
						OFFSET -0.192200 -14.009700 16.364100
						CHANNELS 3 Xrotation Yrotation Zrotation
						JOINT RightToe_End
						{
							OFFSET 1.784700 -0.561700 9.474800
							CHANNELS 3 Xrotation Yrotation Zrotation
							End Site
							{
								OFFSET 0 0 0
							}
						}
					}
				}
			}
		}
	}
	JOINT Spine_virtual
	{
		OFFSET 0.000000 0.000000 0.000000
		CHANNELS 3 Xrotation Yrotation Zrotation
		JOINT Spine
		{
			OFFSET 0.072000 7.257294 -0.789700
			CHANNELS 3 Xrotation Yrotation Zrotation
			JOINT Spine1
			{
				OFFSET 0.000000 12.508769 -0.658067
				CHANNELS 3 Xrotation Yrotation Zrotation
				JOINT Spine1_split
				{
					OFFSET 0.000000 12.508769 -0.658067
					CHANNELS 3 Xrotation Yrotation Zrotation
					JOINT Spine2
					{
						OFFSET 0.000000 12.508769 -0.658067
						CHANNELS 3 Xrotation Yrotation Zrotation
						JOINT Neck_virtual
						{
							OFFSET 0.000000 0.000000 0.000000
							CHANNELS 3 Xrotation Yrotation Zrotation
							JOINT Neck
							{
								OFFSET 0.000000 14.033295 7.520400
								CHANNELS 3 Xrotation Yrotation Zrotation
								JOINT Head
								{
									OFFSET 0.000000 8.198502 5.703100
									CHANNELS 3 Xrotation Yrotation Zrotation
									JOINT HeadTop_End
									{
										OFFSET 0.000000 17.760803 13.332701
										CHANNELS 3 Xrotation Yrotation Zrotation
										End Site
										{
											OFFSET 0 0 0
										}
									}
								}
							}
						}
						JOINT LeftShoulder_virtual
						{
							OFFSET 0.000000 0.000000 0.000000
							CHANNELS 3 Xrotation Yrotation Zrotation
							JOINT LeftShoulder
							{
								OFFSET 6.292450 5.785301 -0.669000
								CHANNELS 3 Xrotation Yrotation Zrotation
								JOINT LeftShoulder_split
								{
									OFFSET 6.292450 5.785301 -0.669000
									CHANNELS 3 Xrotation Yrotation Zrotation
									JOINT LeftArm
									{
										OFFSET 13.907140 -6.093903 1.965100
										CHANNELS 3 Xrotation Yrotation Zrotation
										JOINT LeftForeArm
										{
											OFFSET 34.140198 0.000000 0.000000
											CHANNELS 3 Xrotation Yrotation Zrotation
											JOINT LeftHand
											{
												OFFSET 40.960209 0.000000 0.000000
												CHANNELS 3 Xrotation Yrotation Zrotation
												End Site
												{
													OFFSET 0 0 0
												}
											}
										}
									}
								}
							}
						}
						JOINT RightShoulder_virtual
						{
							OFFSET 0.000000 0.000000 0.000000
							CHANNELS 3 Xrotation Yrotation Zrotation
							JOINT RightShoulder
							{
								OFFSET -6.292450 5.785301 -0.669000
								CHANNELS 3 Xrotation Yrotation Zrotation
								JOINT RightShoulder_split
								{
									OFFSET -6.292450 5.785301 -0.669000
									CHANNELS 3 Xrotation Yrotation Zrotation
									JOINT RightArm
									{
										OFFSET -13.907140 -6.093903 1.965100
										CHANNELS 3 Xrotation Yrotation Zrotation
										JOINT RightForeArm
										{
											OFFSET -34.140198 0.000000 0.000000
											CHANNELS 3 Xrotation Yrotation Zrotation
											JOINT RightHand
											{
												OFFSET -40.960209 0.000000 0.000000
												CHANNELS 3 Xrotation Yrotation Zrotation
												End Site
												{
													OFFSET 0 0 0
												}
											}
										}
									}
								}
							}
						}
					}
				}
			}
		}
	}
}
MOTION
Frames: 8
Frame Time: 0.03333333
21.923187 105.579826 -28.638599 0.000000 0.000000 0.000000 155.278955 -40.947630 163.040372 -24.265519 27.932323 22.795070 28.835553 20.003546 -1.499703 -7.294240 10.748270 -28.636791 -0.506808 -0.425556 0.605640 0.000000 0.000000 0.000000 156.193941 -37.929304 163.380283 -48.113471 14.270594 10.162910 24.897873 -0.823160 0.065965 0.234914 -3.032488 4.659064 2.274508 0.221404 -0.237604 0.000000 0.000000 0.000000 156.987636 -40.231730 162.578501 35.723795 2.116843 10.147487 -9.165777 -2.401339 2.266765 0.629931 1.423275 0.578449 0.000000 0.000000 0.000000 -9.218092 -2.061066 2.228952 -10.385763 0.039192 -9.019681 -20.012646 -12.132636 7.295441 0.000000 0.000000 0.000000 -10.128891 -1.884197 2.017329 6.932359 -15.389144 25.534845 4.179851 1.771670 1.967427 -69.450258 -1.658919 -45.597394 -1.513420 -60.725730 4.966101 0.000000 0.000000 0.000000 -9.682421 -1.654813 2.360536 6.344118 5.324500 -2.487302 -3.610893 -0.313557 2.143864 -0.213368 5.964056 68.002934 14.353441 25.729907 -3.755950 0.000000 0.000000 0.000000 
21.683949 105.916634 -28.867939 0.000000 0.000000 0.000000 155.523080 -41.167548 163.333756 -22.878695 28.059455 21.977244 27.526670 20.138698 -1.319668 -7.114810 10.643807 -28.465633 -0.411264 -0.410419 0.537046 0.000000 0.000000 0.000000 156.397002 -38.159526 163.613766 -47.409993 14.117063 9.861635 24.547106 -0.798292 0.007789 0.069115 -2.807133 4.531925 2.266586 0.249308 -0.198115 0.000000 0.000000 0.000000 157.180193 -40.460886 162.886105 35.479749 2.120340 10.129112 -9.117817 -2.417797 2.384721 0.559723 1.492637 0.574266 0.000000 0.000000 0.000000 -9.093851 -2.082753 2.314903 -11.217086 -3.230483 -7.827236 -17.860349 -15.878728 8.105964 0.000000 0.000000 0.000000 -10.022459 -1.924326 2.126584 6.599320 -14.770515 24.727897 4.205235 1.820282 2.271455 -69.296360 -1.126606 -45.849065 -1.372900 -60.202790 5.051005 0.000000 0.000000 0.000000 -9.517556 -1.680435 2.432142 6.213459 4.717030 -2.724730 -3.773843 -0.187783 2.101093 -0.129742 6.403885 68.349314 14.090270 25.844859 -3.516366 0.000000 0.000000 0.000000 
21.457136 106.252129 -29.069675 0.000000 0.000000 0.000000 155.731414 -41.375275 163.592989 -21.550244 28.162299 21.139395 26.256571 20.257808 -1.124398 -6.960471 10.528749 -28.310622 -0.339127 -0.395640 0.484745 0.000000 0.000000 0.000000 156.563044 -38.353418 163.816282 -46.758362 13.940009 9.526269 24.215437 -0.744993 -0.046335 -0.035630 -2.595257 4.460046 2.235777 0.274966 -0.156585 0.000000 0.000000 0.000000 157.320621 -40.653081 163.178697 35.261138 2.159732 10.102189 -9.091247 -2.408344 2.455018 0.573223 1.508205 0.548779 0.000000 0.000000 0.000000 -8.971607 -2.084655 2.363439 -11.927701 -6.106003 -7.003005 -16.030789 -18.741928 8.582770 0.000000 0.000000 0.000000 -9.943430 -1.940865 2.197990 6.311489 -14.303455 23.865687 4.267057 1.973646 2.611258 -69.187952 -0.664128 -46.077511 -1.482373 -59.636069 4.864538 0.000000 0.000000 0.000000 -9.373519 -1.692463 2.455735 6.085229 4.123561 -2.900830 -3.894985 -0.123799 2.114148 -0.125567 6.849658 68.711232 13.851473 26.056815 -3.292777 0.000000 0.000000 0.000000 
21.244263 106.576515 -29.211643 0.000000 0.000000 0.000000 155.902975 -41.572469 163.831007 -20.307310 28.228571 20.308147 25.063862 20.363309 -0.933804 -6.804476 10.414457 -28.164568 -0.287802 -0.380935 0.443841 0.000000 0.000000 0.000000 156.691780 -38.535251 164.003729 -46.175118 13.697907 9.138659 23.950685 -0.664135 -0.088611 -0.111445 -2.413103 4.428455 2.219691 0.296537 -0.109395 0.000000 0.000000 0.000000 157.419277 -40.828446 163.461713 35.047931 2.225874 10.078120 -9.074990 -2.379024 2.474233 0.632498 1.497263 0.541507 0.000000 0.000000 0.000000 -8.858004 -2.072989 2.372786 -12.530525 -8.480577 -6.563162 -14.550622 -20.613607 8.694353 0.000000 0.000000 0.000000 -9.889696 -1.937579 2.233188 6.064069 -13.931848 23.029547 4.291223 2.147679 2.914462 -69.121542 -0.403621 -46.259662 -1.809505 -59.199415 4.444013 0.000000 0.000000 0.000000 -9.253036 -1.696120 2.431679 5.959913 3.576126 -3.029376 -3.928262 -0.053878 2.163852 -0.192257 7.282956 69.095594 13.668362 26.373833 -3.105077 0.000000 0.000000 0.000000 
21.049911 106.876083 -29.284908 0.000000 0.000000 0.000000 156.045575 -41.775138 164.069012 -19.163564 28.257483 19.497227 23.979356 20.467468 -0.769787 -6.631343 10.315765 -28.005703 -0.243092 -0.366564 0.405548 0.000000 0.000000 0.000000 156.790763 -38.734139 164.190071 -45.658131 13.367741 8.687716 23.790310 -0.564776 -0.116738 -0.196706 -2.278781 4.407386 2.245444 0.313900 -0.052690 0.000000 0.000000 0.000000 157.502154 -41.002674 163.746791 34.820400 2.298807 10.073727 -9.059127 -2.338912 2.454609 0.711586 1.492606 0.536518 0.000000 0.000000 0.000000 -8.765734 -2.051977 2.351317 -13.033323 -10.308320 -6.467532 -13.398553 -21.610326 8.517630 0.000000 0.000000 0.000000 -9.851575 -1.919090 2.244854 5.859132 -13.616242 22.297223 4.226113 2.286635 3.112365 -69.052932 -0.388101 -46.360954 -2.330056 -58.944034 3.829311 0.000000 0.000000 0.000000 -9.158759 -1.697263 2.376507 5.840699 3.077732 -3.121785 -3.898867 0.033767 2.213439 -0.289532 7.690157 69.509257 13.536281 26.734660 -2.950999 0.000000 0.000000 0.000000 
20.878412 107.143837 -29.284931 0.000000 0.000000 0.000000 156.174912 -42.005076 164.324926 -18.114418 28.251291 18.721875 23.004849 20.569591 -0.642621 -6.437899 10.245053 -27.820955 -0.194690 -0.352023 0.362045 0.000000 0.000000 0.000000 156.874105 -38.984742 164.389990 -45.190188 12.947216 8.176028 23.740078 -0.453698 -0.132985 -0.318187 -2.199789 4.378106 2.296619 0.326956 0.013250 0.000000 0.000000 0.000000 157.595400 -41.204994 164.040448 34.581333 2.357475 10.094029 -9.042527 -2.300768 2.416427 0.703622 1.543737 0.535048 0.000000 0.000000 0.000000 -8.699591 -2.033956 2.317756 -13.451532 -11.651693 -6.623766 -12.492203 -21.897228 8.189315 0.000000 0.000000 0.000000 -9.825582 -1.892930 2.249663 5.691737 -13.305350 21.702781 4.102117 2.367463 3.139689 -68.915509 -0.573778 -46.363922 -3.017807 -58.779939 3.054537 0.000000 0.000000 0.000000 -9.082965 -1.702417 2.311675 5.732282 2.638568 -3.193730 -3.847307 0.108586 2.237850 -0.365835 8.044191 69.921712 13.429072 27.038817 -2.815149 0.000000 0.000000 0.000000 
20.751362 107.378510 -29.231518 0.000000 0.000000 0.000000 156.312199 -42.277092 164.619621 -17.154763 28.198127 17.991157 22.126681 20.643943 -0.548034 -6.229302 10.195532 -27.619600 -0.163888 -0.336647 0.317345 0.000000 0.000000 0.000000 156.965274 -39.316403 164.635522 -44.755583 12.465622 7.608242 23.782471 -0.329184 -0.144312 -0.484266 -2.169445 4.347324 2.330903 0.337098 0.085307 0.000000 0.000000 0.000000 157.714314 -41.460266 164.353121 34.347898 2.379315 10.128790 -9.020347 -2.272063 2.376072 0.642122 1.597154 0.545445 0.000000 0.000000 0.000000 -8.673187 -2.019439 2.285568 -13.808856 -12.596976 -6.917645 -11.753888 -21.737311 7.866582 0.000000 0.000000 0.000000 -9.806778 -1.868763 2.250407 5.561826 -12.976647 21.273627 3.943842 2.391260 3.032928 -68.683317 -0.912547 -46.280416 -3.803239 -58.519497 2.198639 0.000000 0.000000 0.000000 -9.014560 -1.711641 2.253651 5.643286 2.272033 -3.247749 -3.840747 0.101541 2.172266 -0.374312 8.337495 70.302222 13.321013 27.226809 -2.682171 0.000000 0.000000 0.000000 
20.668503 107.583794 -29.162334 0.000000 0.000000 0.000000 156.479292 -42.620363 164.958207 -16.282809 28.085352 17.322456 21.336867 20.658855 -0.478001 -6.010073 10.152301 -27.417366 -0.149208 -0.321443 0.274350 0.000000 0.000000 0.000000 157.077521 -39.756407 164.918606 -44.348821 11.951919 7.004649 23.889702 -0.198802 -0.159047 -0.692835 -2.179212 4.317597 2.323915 0.344798 0.158916 0.000000 0.000000 0.000000 157.871517 -41.795611 164.691297 34.139895 2.354662 10.158887 -8.992916 -2.252631 2.342069 0.553496 1.655659 0.514966 0.000000 0.000000 0.000000 -8.677624 -2.008833 2.265274 -14.123108 -13.278134 -7.266603 -11.133637 -21.383453 7.648971 0.000000 0.000000 0.000000 -9.790730 -1.842453 2.253206 5.467178 -12.644785 20.975333 3.807904 2.365773 2.877166 -68.369203 -1.313285 -46.173646 -4.583786 -58.084106 1.359514 0.000000 0.000000 0.000000 -8.945847 -1.719036 2.214187 5.582029 1.986743 -3.279040 -3.903080 0.023486 2.051505 -0.249161 8.577651 70.637905 13.208423 27.309033 -2.556883 0.000000 0.000000 0.000000 
